# xmcd
#
# Track frame offsets:
#	150
#	17280
#	32637
#	54780
#	77717
#	98226
#	122932
#	139729
#	166433
#	185077
#	205083
#	220688
#	240261
#	254487
#	272698
#
# Disc length: 3853 seconds
#
# Revision: 0
# Processed by: cddbd v1.5.1PL2 Copyright (c) Steve Scherf et al.
# Submitted via: EasyCDDAExtractor 9.0.2.1
#
DISCID=c60f0b0f
DTITLE=Austria 3 - Vol.III
DYEAR=1900
DGENRE=Pop
TTITLE0=Ollas Leiwaund
TTITLE1=In Wien
TTITLE2=I Söba
TTITLE3=Zwischen Eins and Vier
TTITLE4=Du Bist Wie Die Wintersunn
TTITLE5=Der Alte Wessely
TTITLE6=Alte Helden
TTITLE7=A Erstickter Schrei
TTITLE8=Ignorantenstadl
TTITLE9=Tango Korrupti
TTITLE10=Ruaf Mi Ned Au
TTITLE11=Zweierbeziehung
TTITLE12=Hoffnungslos
TTITLE13=Des Is Mei Frau
TTITLE14=Baba and Foi Ned
EXTD=
EXTT0=
EXTT1=
EXTT2=
EXTT3=
EXTT4=
EXTT5=
EXTT6=
EXTT7=
EXTT8=
EXTT9=
EXTT10=
EXTT11=
EXTT12=
EXTT13=
EXTT14=
PLAYORDER=
